# xmcd CD database file
#
# Track frame offsets:
#	150
#	13996
#	29041
#	43428
#	57172
#	70428
#	75093
#	89098
#	104778
#	122617
#	134684
#	146786
#	163579
#	178932
#	192567
#	205281
#	229027
#	249781
#	266384
#	282503
#	296629
#	315083
#	329591
#
# Disc length: 4661 seconds
#
# Revision: 0
# Processed by: cddbd v1.5.2PL0 Copyright (c) Steve Scherf et al.
# Submitted via: CDex 1.70beta2
#
DISCID=6c123317
DTITLE=Plyta - Plyta Litewska 2005-12 UV Himnas
DYEAR=2012
DGENRE=Salsa
TTITLE0=vudis-zodziai
TTITLE1=Mino Ir Vilija - Vivo Per Lei
TTITLE2=Vilija - Mylek
TTITLE3=raketa_ - - i_kluba
TTITLE4=Vilija Mataciunaite - Spjaudau ir gaudau
TTITLE5=natas_ - - 1h_25min
TTITLE6=NL - Ruri
TTITLE7=Hokshila and B.J. Fighters - Pasaulis Grazus (feat. Linas A
TTITLE8=A.Makejevas - Tas ilgas kelias
TTITLE9=A.Makejevas - Griztu namo
TTITLE10=Andrius Mamontovas - Pavasariniai ziedai
TTITLE11=Gintare - Svajoklis
TTITLE12=Viktorija - Pasejau Lineli
TTITLE13=Viktorija - As myliu vasaros rugiageles
TTITLE14=Isjunk Sviesa - Misko Pasaka
TTITLE15=Karaliska Erdve - Is leto leidziasi saule
TTITLE16=Karaliska Erdve - Vakareja
TTITLE17=Karaliska Erdve ir Funky - As vel esu toli
TTITLE18=Keistuoliu Teatras - Kaip Man Sunku
TTITLE19=Lemon Joy and Irma - Balta meile
TTITLE20=Lemon Joy - Geltoni krantai
TTITLE21=Ultra Vires - Himnas
TTITLE22=Belmondo - Nemylejau taves
EXTD=YEAR: 2012
EXTT0=
EXTT1=
EXTT2=
EXTT3=
EXTT4=
EXTT5=
EXTT6=
EXTT7=
EXTT8=
EXTT9=
EXTT10=
EXTT11=
EXTT12=
EXTT13=
EXTT14=
EXTT15=
EXTT16=
EXTT17=
EXTT18=
EXTT19=
EXTT20=
EXTT21=
EXTT22=
PLAYORDER=
